<?xml version="1.0" encoding="UTF-8"?>
<svg version="1.1" xmlns="http://www.w3.org/2000/svg" width="798" height="313">
<path d="M0 0 C1.15822266 -0.00773437 2.31644531 -0.01546875 3.50976562 -0.0234375 C13.15346645 -0.00153244 20.9012306 1.18052825 29.5 5.5625 C31.22283203 6.42294922 31.22283203 6.42294922 32.98046875 7.30078125 C36.48815976 9.35275993 39.2729028 11.57017303 42.3125 14.25 C41.9825 15.24 41.6525 16.23 41.3125 17.25 C40.30832031 17.21519531 39.30414063 17.18039063 38.26953125 17.14453125 C22.18707422 16.75068324 9.05111977 21.21229381 -5.6875 27.25 C-4.96739904 30.59962775 -3.76224231 33.56591631 -2.39453125 36.703125 C4.00055984 51.6650779 8.97935503 66.30394839 12.3125 82.25 C12.49594971 83.12640137 12.67939941 84.00280273 12.8684082 84.90576172 C15.57338299 98.12537594 16.54660427 111.27013414 17.03829956 124.72631836 C17.09595595 126.27989519 17.15853362 127.83329742 17.22610474 129.38647461 C17.31944265 131.59727415 17.39124779 133.80776011 17.45703125 136.01953125 C17.50190674 137.31479736 17.54678223 138.61006348 17.59301758 139.94458008 C17.29606754 143.44362842 16.71138755 144.75919502 14.3125 147.25 C12.42560308 143.06954735 11.57659228 138.86719087 10.8125 134.375 C9.92534287 129.21778984 8.81990097 124.27279501 7.3125 119.25 C6.95671875 117.98285156 6.6009375 116.71570313 6.234375 115.41015625 C3.4157205 105.48506123 0.1954439 95.81044976 -3.6875 86.25 C-3.97463867 85.54262695 -4.26177734 84.83525391 -4.55761719 84.10644531 C-10.91924886 68.6665933 -18.58277899 52.87072388 -29.6875 40.25 C-32.55474686 40.82344937 -33.5489515 41.1114515 -35.6875 43.25 C-34.511875 44.7040625 -34.511875 44.7040625 -33.3125 46.1875 C-28.61352073 52.45649117 -24.83424373 59.29308326 -20.94580078 66.08007812 C-19.81218601 68.03498074 -18.64731742 69.96504934 -17.46484375 71.890625 C-10.16331572 84.0058387 -5.13451643 97.15185332 0.09521484 110.25292969 C1.0154698 112.51868376 1.97678159 114.73776675 3 116.95703125 C4.80799971 121.49317338 5.85872685 126.12040724 6.9375 130.875 C7.1540625 131.803125 7.370625 132.73125 7.59375 133.6875 C8.56317176 137.86439127 9.48519089 142.04240869 10.3125 146.25 C10.9725 146.25 11.6325 146.25 12.3125 146.25 C12.37308594 147.30960938 12.43367187 148.36921875 12.49609375 149.4609375 C12.58050127 150.84897221 12.66514917 152.23699232 12.75 153.625 C12.78931641 154.32367188 12.82863281 155.02234375 12.86914062 155.7421875 C13.05530134 159.62360492 13.05530134 159.62360492 14.3125 163.25 C15.89016202 173.14419464 15.55355744 183.38418836 15.5625 193.375 C15.56383942 194.25762512 15.56517883 195.14025024 15.56655884 196.04962158 C15.55260883 238.52980307 15.55260883 238.52980307 6.3125 255.25 C5.6525 254.92 4.9925 254.59 4.3125 254.25 C3.95389262 251.82752338 3.72392225 249.49655698 3.56640625 247.05859375 C3.50976303 246.3210939 3.45311981 245.58359406 3.39476013 244.82374573 C3.21247516 242.44556996 3.04235077 240.06677044 2.875 237.6875 C2.0519775 226.00742889 0.71869836 214.71426565 -1.6875 203.25 C-1.87497803 202.31841064 -2.06245605 201.38682129 -2.25561523 200.42700195 C-2.71346423 198.17574147 -3.19489221 195.93137025 -3.6875 193.6875 C-3.83960938 192.95982422 -3.99171875 192.23214844 -4.1484375 191.48242188 C-5.17846457 186.78397873 -6.78298859 182.68204117 -8.6875 178.25 C-9.52664599 174.69916929 -10.18426224 171.14261496 -10.84375 167.5546875 C-11.68715739 164.2513419 -12.86677801 162.0990054 -14.6875 159.25 C-15.27951329 157.72695727 -15.82479682 156.18457831 -16.3125 154.625 C-16.55226563 153.86960938 -16.79203125 153.11421875 -17.0390625 152.3359375 C-17.36003906 151.30339844 -17.36003906 151.30339844 -17.6875 150.25 C-18.0175 149.26 -18.3475 148.27 -18.6875 147.25 C-19.3475 146.92 -20.0075 146.59 -20.6875 146.25 C-20.79578125 145.43015625 -20.9040625 144.6103125 -21.015625 143.765625 C-21.93037657 138.97913423 -24.10375123 135.24256641 -26.4375 131 C-27.3083821 129.39121481 -28.17817144 127.78183759 -29.046875 126.171875 C-29.48797607 125.36073242 -29.92907715 124.54958984 -30.38354492 123.71386719 C-31.66422339 121.29398195 -32.85175879 118.84362957 -34.03515625 116.375 C-36.99065823 110.42228765 -40.64953869 104.99293244 -44.375 99.5 C-45.08615967 98.44522461 -45.79731934 97.39044922 -46.5300293 96.30371094 C-48.57462878 93.28035088 -50.62941342 90.26418902 -52.6875 87.25 C-53.19571289 86.49976562 -53.70392578 85.74953125 -54.22753906 84.9765625 C-58.64888438 78.4683422 -63.33363604 72.25692846 -68.5625 66.375 C-69.01536377 65.85583008 -69.46822754 65.33666016 -69.93481445 64.80175781 C-71.36628913 63.19646837 -71.36628913 63.19646837 -73.6875 61.25 C-75.0075 61.25 -76.3275 61.25 -77.6875 61.25 C-75.73631888 66.39110552 -73.41009176 70.11788697 -69.6875 74.1875 C-49.6875 96.8902027 -49.6875 96.8902027 -49.6875 104.25 C-49.0275 104.58 -48.3675 104.91 -47.6875 105.25 C-46.26128757 107.66785298 -44.9241869 110.07800841 -43.625 112.5625 C-43.07875977 113.57860352 -43.07875977 113.57860352 -42.52148438 114.61523438 C-39.77317936 119.81212168 -39.77317936 119.81212168 -39.26391602 122.41479492 C-39.07369873 123.0204126 -38.88348145 123.62603027 -38.6875 124.25 C-37.6975 124.58 -36.7075 124.91 -35.6875 125.25 C-34.15234375 127.98046875 -34.15234375 127.98046875 -32.625 131.4375 C-32.11839844 132.56542969 -31.61179687 133.69335938 -31.08984375 134.85546875 C-29.6875 138.25 -29.6875 138.25 -28.62890625 141.48828125 C-27.76336069 144.41416661 -27.76336069 144.41416661 -25.6875 147.25 C-26.0625 149.9375 -26.0625 149.9375 -26.6875 152.25 C-30.16254019 151.00891422 -31.52245952 149.22124155 -33.43359375 146.1484375 C-37.77123768 139.58116351 -43.12466563 133.63094459 -48.4375 127.84375 C-49.6875 126.25 -49.6875 126.25 -49.6875 124.25 C-50.3475 124.25 -51.0075 124.25 -51.6875 124.25 C-53.02294922 122.68334961 -53.02294922 122.68334961 -54.6171875 120.46484375 C-59.18686264 114.42744091 -64.45182869 109.13556815 -69.8125 103.8125 C-70.32228394 103.30387421 -70.83206787 102.79524841 -71.3572998 102.27120972 C-78.72601715 94.93559234 -86.17635767 88.24376221 -94.6875 82.25 C-95.62335938 81.46109375 -96.55921875 80.6721875 -97.5234375 79.859375 C-102.08162864 76.10557053 -105.18927876 73.65748293 -111.25 74.125 C-113.80542774 74.57475528 -116.31339564 75.16175061 -118.83813477 75.75732422 C-133.24669849 78.92924631 -150.0558068 79.40857209 -163.6875 73.25 C-164.57236084 72.85603027 -164.57236084 72.85603027 -165.47509766 72.45410156 C-172.15174247 69.43951096 -178.34468584 66.33494078 -183.6875 61.25 C-183.6875 60.26 -183.6875 59.27 -183.6875 58.25 C-182.98109375 58.29640625 -182.2746875 58.3428125 -181.546875 58.390625 C-153.73551941 59.36891389 -127.48091702 46.53415472 -103.30493164 34.10058594 C-93.59725765 29.12013468 -83.74140659 24.56946578 -73.75 20.1875 C-73.05137848 19.87993774 -72.35275696 19.57237549 -71.63296509 19.25549316 C-45.47142529 7.75746295 -45.47142529 7.75746295 -34 4.5 C-33.35740234 4.30535156 -32.71480469 4.11070313 -32.05273438 3.91015625 C-21.44811244 0.82705641 -11.00996867 -0.07426623 0 0 Z " fill="#9DCF38" transform="translate(396.6875,31.75)"/>
<path d="M0 0 C2.81505852 1.48587859 3.78526218 2.65413686 5.43652344 5.34228516 C5.94086914 6.14907715 6.44521484 6.95586914 6.96484375 7.78710938 C7.46854492 8.62129395 7.97224609 9.45547852 8.49121094 10.31494141 C8.97686523 11.09111816 9.46251953 11.86729492 9.96289062 12.66699219 C21.01011163 30.3921214 29.59879527 48.44605237 37.4453125 67.78662109 C38.29157139 69.83233936 39.19702156 71.85350701 40.12011719 73.86572266 C41.94669148 78.46077993 43.0238389 83.12541277 44.11621094 87.93994141 C44.33277344 88.86806641 44.54933594 89.79619141 44.77246094 90.75244141 C45.74188269 94.92933268 46.66390183 99.1073501 47.49121094 103.31494141 C48.15121094 103.31494141 48.81121094 103.31494141 49.49121094 103.31494141 C49.55179687 104.37455078 49.61238281 105.43416016 49.67480469 106.52587891 C49.7592122 107.91391362 49.8438601 109.30193372 49.92871094 110.68994141 C49.96802734 111.38861328 50.00734375 112.08728516 50.04785156 112.80712891 C50.23401228 116.68854633 50.23401228 116.68854633 51.49121094 120.31494141 C53.06887295 130.20913605 52.73226838 140.44912977 52.74121094 150.43994141 C52.74255035 151.32256653 52.74388977 152.20519165 52.74526978 153.11456299 C52.73131977 195.59474448 52.73131977 195.59474448 43.49121094 212.31494141 C42.83121094 211.98494141 42.17121094 211.65494141 41.49121094 211.31494141 C41.13260355 208.89246479 40.90263319 206.56149839 40.74511719 204.12353516 C40.68847397 203.38603531 40.63183075 202.64853546 40.57347107 201.88868713 C40.39118609 199.51051137 40.22106171 197.13171184 40.05371094 194.75244141 C39.23068844 183.07237029 37.8974093 171.77920705 35.49121094 160.31494141 C35.30373291 159.38335205 35.11625488 158.4517627 34.9230957 157.49194336 C34.4652467 155.24068287 33.98381873 152.99631165 33.49121094 150.75244141 C33.33910156 150.02476562 33.18699219 149.29708984 33.03027344 148.54736328 C32.00024637 143.84892014 30.39572234 139.74698258 28.49121094 135.31494141 C27.65206495 131.7641107 26.9944487 128.20755636 26.33496094 124.61962891 C25.49155355 121.31628331 24.31193293 119.16394681 22.49121094 116.31494141 C21.89919765 114.79189868 21.35391412 113.24951971 20.86621094 111.68994141 C20.62644531 110.93455078 20.38667969 110.17916016 20.13964844 109.40087891 C19.92566406 108.71251953 19.71167969 108.02416016 19.49121094 107.31494141 C19.16121094 106.32494141 18.83121094 105.33494141 18.49121094 104.31494141 C17.50121094 103.81994141 17.50121094 103.81994141 16.49121094 103.31494141 C16.38292969 102.49509766 16.27464844 101.67525391 16.16308594 100.83056641 C15.24833437 96.04407564 13.07495971 92.30750781 10.74121094 88.06494141 C9.87032884 86.45615621 9.0005395 84.846779 8.13183594 83.23681641 C7.69073486 82.42567383 7.24963379 81.61453125 6.79516602 80.77880859 C5.51448755 78.35892335 4.32695214 75.90857098 3.14355469 73.43994141 C0.18803638 67.48719618 -3.47100718 62.05802687 -7.19628906 56.56494141 C-7.90599854 55.51161621 -8.61570801 54.45829102 -9.34692383 53.37304688 C-11.39195735 50.34748596 -13.44750057 47.32944504 -15.50878906 44.31494141 C-16.02763672 43.55407227 -16.54648437 42.79320312 -17.08105469 42.00927734 C-21.84300433 35.06168037 -26.81758835 28.55569643 -32.69628906 22.49853516 C-34.60985167 20.19318711 -35.55588657 18.13890765 -36.50878906 15.31494141 C-34.32256656 14.20818522 -32.13487958 13.10449763 -29.94628906 12.00244141 C-29.33720703 11.69371094 -28.728125 11.38498047 -28.10058594 11.06689453 C-23.96402708 8.98767182 -19.76631261 7.13752793 -15.50878906 5.31494141 C-14.40277344 4.76193359 -13.29675781 4.20892578 -12.15722656 3.63916016 C-11.07699219 3.09904297 -9.99675781 2.55892578 -8.88378906 2.00244141 C-7.79839844 1.44943359 -6.71300781 0.89642578 -5.59472656 0.32666016 C-2.50878906 -0.68505859 -2.50878906 -0.68505859 0 0 Z " fill="#548A3A" transform="translate(359.5087890625,74.68505859375)"/>
<path d="M0 0 C1.15822266 -0.00773437 2.31644531 -0.01546875 3.50976562 -0.0234375 C13.15346645 -0.00153244 20.9012306 1.18052825 29.5 5.5625 C31.22283203 6.42294922 31.22283203 6.42294922 32.98046875 7.30078125 C36.48815976 9.35275993 39.2729028 11.57017303 42.3125 14.25 C41.9825 15.24 41.6525 16.23 41.3125 17.25 C40.30832031 17.22679688 39.30414063 17.20359375 38.26953125 17.1796875 C29.41033393 17.04044668 21.05066398 17.57418773 12.3125 19.25 C13.3025 18.755 13.3025 18.755 14.3125 18.25 C14.3125 17.59 14.3125 16.93 14.3125 16.25 C18.7675 15.755 18.7675 15.755 23.3125 15.25 C23.3125 14.59 23.3125 13.93 23.3125 13.25 C25.9525 13.25 28.5925 13.25 31.3125 13.25 C16.67506532 10.89822708 -1.4230472 11.01480299 -15.453125 16.3984375 C-18.32503807 17.4929778 -21.24543559 18.36195752 -24.1875 19.25 C-27.86972601 20.37512461 -31.540207 21.51635678 -35.1875 22.75 C-38.98457721 24.02983422 -42.80003586 25.24350791 -46.625 26.4375 C-47.72714844 26.78167969 -48.82929688 27.12585938 -49.96484375 27.48046875 C-52.6875 28.25 -52.6875 28.25 -54.6875 28.25 C-54.6875 28.91 -54.6875 29.57 -54.6875 30.25 C-55.75226563 30.60191406 -56.81703125 30.95382813 -57.9140625 31.31640625 C-65.00533987 33.71115201 -71.81246134 36.15946736 -78.4375 39.6875 C-84.97380941 43.09807429 -91.65359289 45.38507652 -98.66918945 47.62036133 C-103.68957675 49.22636357 -108.58538876 50.96309153 -113.45581055 52.97802734 C-120.88756859 56.05110321 -128.28007999 58.33479496 -136.125 60.125 C-137.01243896 60.32818848 -137.89987793 60.53137695 -138.81420898 60.74072266 C-145.07761651 62.08926133 -151.29974187 62.79783716 -157.6875 63.25 C-157.0275 62.26 -156.3675 61.27 -155.6875 60.25 C-166.22523666 60.89945944 -166.22523666 60.89945944 -176.6875 62.25 C-175.6975 62.58 -174.7075 62.91 -173.6875 63.25 C-173 65.3125 -173 65.3125 -172.6875 67.25 C-171.0375 67.25 -169.3875 67.25 -167.6875 67.25 C-167.1925 68.24 -167.1925 68.24 -166.6875 69.25 C-165.2025 69.745 -165.2025 69.745 -163.6875 70.25 C-163.6875 70.91 -163.6875 71.57 -163.6875 72.25 C-171.44118936 70.21624541 -177.77047629 66.73568927 -183.6875 61.25 C-183.6875 60.26 -183.6875 59.27 -183.6875 58.25 C-182.98109375 58.29640625 -182.2746875 58.3428125 -181.546875 58.390625 C-153.73551941 59.36891389 -127.48091702 46.53415472 -103.30493164 34.10058594 C-93.59725765 29.12013468 -83.74140659 24.56946578 -73.75 20.1875 C-73.05137848 19.87993774 -72.35275696 19.57237549 -71.63296509 19.25549316 C-45.47142529 7.75746295 -45.47142529 7.75746295 -34 4.5 C-33.35740234 4.30535156 -32.71480469 4.11070313 -32.05273438 3.91015625 C-21.44811244 0.82705641 -11.00996867 -0.07426623 0 0 Z " fill="#B8F437" transform="translate(396.6875,31.75)"/>
<path d="M0 0 C5.63632474 4.50905979 5.63632474 4.50905979 7.68359375 9.453125 C8.13355713 10.53601807 8.58352051 11.61891113 9.04711914 12.73461914 C9.50594482 13.89469482 9.96477051 15.05477051 10.4375 16.25 C10.91759521 17.4455249 11.39769043 18.6410498 11.89233398 19.87280273 C16.36227255 31.33377661 19.48612651 42.97341345 22 55 C22.18344971 55.87640137 22.36689941 56.75280273 22.5559082 57.65576172 C25.26088299 70.87537594 26.23410427 84.02013414 26.72579956 97.47631836 C26.78345595 99.02989519 26.84603362 100.58329742 26.91360474 102.13647461 C27.00694265 104.34727415 27.07874779 106.55776011 27.14453125 108.76953125 C27.18940674 110.06479736 27.23428223 111.36006348 27.28051758 112.69458008 C26.98356754 116.19362842 26.39888755 117.50919502 24 120 C22.11310308 115.81954735 21.26409228 111.61719087 20.5 107.125 C19.61284287 101.96778984 18.50740097 97.02279501 17 92 C16.64421875 90.73285156 16.2884375 89.46570313 15.921875 88.16015625 C10.1759314 67.92744015 2.7818316 47.93138478 -8.53125 30.11328125 C-10.23454029 26.50284943 -10.2779059 23.94527126 -10 20 C-10.66 19.67 -11.32 19.34 -12 19 C-10.75453595 15.26360784 -9.36595047 14.81243487 -6 13 C-10.95 14.485 -10.95 14.485 -16 16 C-16.99 14.68 -17.98 13.36 -19 12 C-18.3125 10.0625 -18.3125 10.0625 -17 8 C-14.375 7.25 -14.375 7.25 -12 7 C-12 6.34 -12 5.68 -12 5 C-8.04 3.35 -4.08 1.7 0 0 Z " fill="#83B536" transform="translate(387,59)"/>
<path d="M0 0 C12.47395017 10.042587 23.15536908 25.50319385 30.84375 39.484375 C30.84375 40.144375 30.84375 40.804375 30.84375 41.484375 C31.83375 41.979375 31.83375 41.979375 32.84375 42.484375 C34.26996243 44.90222798 35.6070631 47.31238341 36.90625 49.796875 C37.27041016 50.47427734 37.63457031 51.15167969 38.00976562 51.84960938 C40.75807064 57.04649668 40.75807064 57.04649668 41.26733398 59.64916992 C41.45755127 60.2547876 41.64776855 60.86040527 41.84375 61.484375 C42.83375 61.814375 43.82375 62.144375 44.84375 62.484375 C46.37890625 65.21484375 46.37890625 65.21484375 47.90625 68.671875 C48.41285156 69.79980469 48.91945313 70.92773438 49.44140625 72.08984375 C50.84375 75.484375 50.84375 75.484375 51.90234375 78.72265625 C52.76788931 81.64854161 52.76788931 81.64854161 54.84375 84.484375 C54.46875 87.171875 54.46875 87.171875 53.84375 89.484375 C50.36870981 88.24328922 49.00879048 86.45561655 47.09765625 83.3828125 C42.76001232 76.81553851 37.40658437 70.86531959 32.09375 65.078125 C30.84375 63.484375 30.84375 63.484375 30.84375 61.484375 C30.18375 61.484375 29.52375 61.484375 28.84375 61.484375 C27.50830078 59.91772461 27.50830078 59.91772461 25.9140625 57.69921875 C21.34423789 51.66161843 16.0785604 46.37100611 10.71875 41.046875 C10.21062775 40.53924622 9.70250549 40.03161743 9.1789856 39.50860596 C1.81798235 32.16948932 -5.68301018 25.52045344 -14.15625 19.484375 C-20.00288795 15.15259536 -20.00288795 15.15259536 -21.03125 10.671875 C-21.0725 9.62 -21.11375 8.568125 -21.15625 7.484375 C-17.40986263 5.53472443 -13.54843897 3.86682707 -9.65625 2.234375 C-8.99238281 1.94046875 -8.32851563 1.6465625 -7.64453125 1.34375 C-2.7969237 -0.66882958 -2.7969237 -0.66882958 0 0 Z " fill="#84B637" transform="translate(316.15625,94.515625)"/>
<path d="M0 0 C-1.32 0.33 -2.64 0.66 -4 1 C-4 1.99 -4 2.98 -4 4 C-4.66 4 -5.32 4 -6 4 C-7.42944945 6.35438733 -8.08661261 7.48032433 -7.625 10.25 C-7.41875 10.8275 -7.2125 11.405 -7 12 C-8.65 12.33 -10.3 12.66 -12 13 C-11.505 13.99 -11.505 13.99 -11 15 C-7.535 14.505 -7.535 14.505 -4 14 C-4 14.66 -4 15.32 -4 16 C-49.03200834 35.0793509 -49.03200834 35.0793509 -69 34 C-68.34 33.01 -67.68 32.02 -67 31 C-77.53773666 31.64945944 -77.53773666 31.64945944 -88 33 C-87.01 33.33 -86.02 33.66 -85 34 C-84.3125 36.0625 -84.3125 36.0625 -84 38 C-82.35 38 -80.7 38 -79 38 C-78.67 38.66 -78.34 39.32 -78 40 C-76.515 40.495 -76.515 40.495 -75 41 C-75 41.66 -75 42.32 -75 43 C-82.75368936 40.96624541 -89.08297629 37.48568927 -95 32 C-95 31.01 -95 30.02 -95 29 C-93.94039062 29.06960937 -93.94039062 29.06960937 -92.859375 29.140625 C-64.33553463 30.14397617 -37.11270288 16.69885141 -12.45751953 3.68823242 C-11.8451947 3.36886215 -11.23286987 3.04949188 -10.60198975 2.72044373 C-8.94145219 1.85205461 -7.28761689 0.97088362 -5.63427734 0.08886719 C-3 -1 -3 -1 0 0 Z " fill="#BCF343" transform="translate(308,61)"/>
<path d="M0 0 C6.86634015 3.43317008 10.36060598 20.56409923 13 28 C15.43210405 35.89294983 17.31081484 43.91879319 19 52 C19.18344971 52.87640137 19.36689941 53.75280273 19.5559082 54.65576172 C22.26088299 67.87537594 23.23410427 81.02013414 23.72579956 94.47631836 C23.78345595 96.02989519 23.84603362 97.58329742 23.91360474 99.13647461 C24.00694265 101.34727415 24.07874779 103.55776011 24.14453125 105.76953125 C24.18940674 107.06479736 24.23428223 108.36006348 24.28051758 109.69458008 C23.98356754 113.19362842 23.39888755 114.50919502 21 117 C19.11310308 112.81954735 18.26409228 108.61719087 17.5 104.125 C16.61291396 98.96820315 15.51456202 94.02049261 14 89 C13.61637005 87.69685495 13.23359072 86.39345926 12.8515625 85.08984375 C12.65256348 84.41638916 12.45356445 83.74293457 12.24853516 83.04907227 C11.60030355 80.85386665 10.95623236 78.65746635 10.3125 76.4609375 C9.46981131 73.58756853 8.61510484 70.71825545 7.75 67.8515625 C7.37875 66.60117188 7.0075 65.35078125 6.625 64.0625 C6.28726562 62.93972656 5.94953125 61.81695312 5.6015625 60.66015625 C5 58 5 58 6 56 C9 58 9 58 10 61 C10.99 60.505 10.99 60.505 12 60 C12 57.69 12 55.38 12 53 C12.66 53 13.32 53 14 53 C14.13451772 46.94670256 13.60965199 41.02031344 13 35 C12.34 35 11.68 35 11 35 C10.61908203 33.80503906 10.61908203 33.80503906 10.23046875 32.5859375 C8.12667666 26.02361749 8.12667666 26.02361749 5.3125 19.75 C3.58218214 16.12457209 3.34417868 12.99247267 3 9 C2.01 9 1.02 9 0 9 C-0.33 8.34 -0.66 7.68 -1 7 C-1.66 7 -2.32 7 -3 7 C-3 6.34 -3 5.68 -3 5 C-1.68 4.67 -0.36 4.34 1 4 C0.67 2.68 0.34 1.36 0 0 Z M7 58 C8 60 8 60 8 60 Z " fill="#7CA858" transform="translate(390,62)"/>
<path d="M0 0 C0.33 0.99 0.66 1.98 1 3 C1.66 3 2.32 3 3 3 C3.061875 3.78375 3.12375 4.5675 3.1875 5.375 C3.455625 6.24125 3.72375 7.1075 4 8 C6.47636012 9.37466625 6.47636012 9.37466625 9 10 C9 10.66 9 11.32 9 12 C9.66 12.33 10.32 12.66 11 13 C12.42621243 15.41785298 13.7633131 17.82800841 15.0625 20.3125 C15.42666016 20.98990234 15.79082031 21.66730469 16.16601562 22.36523438 C18.91432064 27.56212168 18.91432064 27.56212168 19.42358398 30.16479492 C19.61380127 30.7704126 19.80401855 31.37603027 20 32 C21.485 32.495 21.485 32.495 23 33 C24.53515625 35.73046875 24.53515625 35.73046875 26.0625 39.1875 C26.56910156 40.31542969 27.07570313 41.44335938 27.59765625 42.60546875 C29 46 29 46 30.05859375 49.23828125 C30.92413931 52.16416661 30.92413931 52.16416661 33 55 C32.625 57.6875 32.625 57.6875 32 60 C28.52495981 58.75891422 27.16504048 56.97124155 25.25390625 53.8984375 C20.91626232 47.33116351 15.56283437 41.38094459 10.25 35.59375 C9 34 9 34 9 32 C8.34 32 7.68 32 7 32 C5.5546875 30.3125 5.5546875 30.3125 3.875 28 C0.29152642 23.23963825 -3.69315953 19.10548169 -8 15 C-7.34 14.67 -6.68 14.34 -6 14 C-3.375 14.9375 -3.375 14.9375 -1 16 C-0.06619039 11.46859347 -0.06619039 11.46859347 -1 7 C-3.50447516 5.78130071 -3.50447516 5.78130071 -6 5 C-6 4.34 -6 3.68 -6 3 C-5.195625 2.87625 -4.39125 2.7525 -3.5625 2.625 C-2.716875 2.41875 -1.87125 2.2125 -1 2 C-0.67 1.34 -0.34 0.68 0 0 Z " fill="#7BA94D" transform="translate(338,124)"/>
<path d="M0 0 C1.15822266 -0.00773437 2.31644531 -0.01546875 3.50976562 -0.0234375 C13.15346645 -0.00153244 20.9012306 1.18052825 29.5 5.5625 C30.64855469 6.13613281 31.79710937 6.70976563 32.98046875 7.30078125 C36.48815976 9.35275993 39.2729028 11.57017303 42.3125 14.25 C41.9825 15.24 41.6525 16.23 41.3125 17.25 C40.30832031 17.22679688 39.30414063 17.20359375 38.26953125 17.1796875 C29.41033393 17.04044668 21.05066398 17.57418773 12.3125 19.25 C13.3025 18.755 13.3025 18.755 14.3125 18.25 C14.3125 17.59 14.3125 16.93 14.3125 16.25 C18.7675 15.755 18.7675 15.755 23.3125 15.25 C23.3125 14.59 23.3125 13.93 23.3125 13.25 C25.9525 13.25 28.5925 13.25 31.3125 13.25 C27.6825 12.59 24.0525 11.93 20.3125 11.25 C22.3125 8.25 22.3125 8.25 25.3125 7.25 C25.3125 6.59 25.3125 5.93 25.3125 5.25 C17.21667436 4.15210964 9.16284631 3.96754933 1 3.9375 C0.29473175 3.93454926 -0.4105365 3.93159851 -1.13717651 3.92855835 C-14.06357464 3.9162857 -27.4052679 4.46036582 -39.375 9.84375 C-42.48157598 11.16257943 -44.78976537 11.70905927 -48.125 11.9375 C-49.42244141 12.03611328 -49.42244141 12.03611328 -50.74609375 12.13671875 C-51.38675781 12.17410156 -52.02742188 12.21148437 -52.6875 12.25 C-49.79618374 9.86775954 -47.26227309 8.58893965 -43.6875 7.49609375 C-42.71683594 7.19896484 -41.74617188 6.90183594 -40.74609375 6.59570312 C-39.73675781 6.29599609 -38.72742188 5.99628906 -37.6875 5.6875 C-36.70910156 5.38392578 -35.73070312 5.08035156 -34.72265625 4.76757812 C-23.10900965 1.26517091 -12.11695131 -0.08173323 0 0 Z " fill="#C6F567" transform="translate(396.6875,31.75)"/>
<path d="M0 0 C1.1875 2.5625 1.1875 2.5625 2 5 C-2.04125781 7.1049526 -6.08307817 9.20882277 -10.125 11.3125 C-11.26710938 11.90740234 -12.40921875 12.50230469 -13.5859375 13.11523438 C-14.69453125 13.69208984 -15.803125 14.26894531 -16.9453125 14.86328125 C-18.46922607 15.65665894 -18.46922607 15.65665894 -20.02392578 16.46606445 C-21.00603027 16.97226318 -21.98813477 17.47846191 -23 18 C-24.58337158 18.83374146 -24.58337158 18.83374146 -26.19873047 19.68432617 C-29.0962533 21.04520734 -30.8473501 21.27817499 -34 21 C-34.99 19.02 -35.98 17.04 -37 15 C-34.8137775 13.89324381 -32.62609052 12.78955622 -30.4375 11.6875 C-29.82841797 11.37876953 -29.21933594 11.07003906 -28.59179688 10.75195312 C-24.45534353 8.67278346 -20.26082607 6.81506376 -16 5 C-12.62431961 3.3815231 -9.25452003 1.75220746 -5.890625 0.109375 C-3 -1 -3 -1 0 0 Z " fill="#659223" transform="translate(360,75)"/>
<path d="M0 0 C2.97246802 2.54782974 4.41535288 5.45340883 6 9 C6 9.66 6 10.32 6 11 C6.99 11.33 7.98 11.66 9 12 C10.53515625 14.73046875 10.53515625 14.73046875 12.0625 18.1875 C12.56910156 19.31542969 13.07570313 20.44335938 13.59765625 21.60546875 C15 25 15 25 16.05859375 28.23828125 C16.92413931 31.16416661 16.92413931 31.16416661 19 34 C18.625 36.6875 18.625 36.6875 18 39 C14.52495981 37.75891422 13.16504048 35.97124155 11.25390625 32.8984375 C6.55059923 25.77754275 0.67750704 19.351711 -5 13 C-4.67 12.34 -4.34 11.68 -4 11 C-3.01 11 -2.02 11 -1 11 C-0.87625 11.639375 -0.7525 12.27875 -0.625 12.9375 C-0.41875 13.618125 -0.2125 14.29875 0 15 C0.66 15.33 1.32 15.66 2 16 C2.05399736 14.54207116 2.09279177 13.08357288 2.125 11.625 C2.15980469 10.40683594 2.15980469 10.40683594 2.1953125 9.1640625 C2.21370051 6.78657757 2.21370051 6.78657757 0 5 C-0.125 2.375 -0.125 2.375 0 0 Z " fill="#5B894E" transform="translate(352,145)"/>
<path d="M0 0 C3.27742098 3.10026309 5.93104837 5.97098894 8 10 C8 10.66 8 11.32 8 12 C7.38125 11.835 6.7625 11.67 6.125 11.5 C3.48243927 10.87822101 2.4501347 10.77493265 0 12 C-0.66 11.34 -1.32 10.68 -2 10 C-7.70741787 11.53125845 -12.54418694 14.2642497 -16.5078125 18.6796875 C-17.00023437 19.11539063 -17.49265625 19.55109375 -18 20 C-21.1875 19.6875 -21.1875 19.6875 -24 19 C-24.78260048 21.81736172 -25.19511109 23.45969238 -24.1875 26.25 C-23.10600632 28.15074924 -23.10600632 28.15074924 -21 29 C-21 29.66 -21 30.32 -21 31 C-19.35 30.34 -17.7 29.68 -16 29 C-16 33.62 -16 38.24 -16 43 C-17.32 41.35 -18.64 39.7 -20 38 C-20.64839844 37.19820312 -21.29679687 36.39640625 -21.96484375 35.5703125 C-25.80337999 30.81204777 -29.50865974 26.01880162 -33 21 C-32.41734375 20.78375977 -31.8346875 20.56751953 -31.234375 20.34472656 C-24.20132034 17.64374606 -17.63279604 14.30906129 -11 10.75 C-8.96030853 9.65776173 -6.91873686 8.56902489 -4.875 7.484375 C-3.98554688 7.00709961 -3.09609375 6.52982422 -2.1796875 6.03808594 C0 5 0 5 2 5 C1.34 3.35 0.68 1.7 0 0 Z " fill="#8BBC36" transform="translate(360,75)"/>
<path d="M0 0 C2 2 2 2 2.1953125 4.3828125 C2.17210937 5.28773438 2.14890625 6.19265625 2.125 7.125 C2.10695313 8.03507813 2.08890625 8.94515625 2.0703125 9.8828125 C2.04710937 10.58148438 2.02390625 11.28015625 2 12 C2.66 12 3.32 12 4 12 C4.18451025 29.85649203 4.18451025 29.85649203 3 38 C2.67 38 2.34 38 2 38 C1.67 34.7 1.34 31.4 1 28 C0.34 28 -0.32 28 -1 28 C-2.75085366 23.0447538 -4.44118666 18.25284539 -5 13 C-5.11408203 12.02546875 -5.11408203 12.02546875 -5.23046875 11.03125 C-5.52019995 6.83406287 -5.2290151 5.27481813 -2.5 2 C-1.675 1.34 -0.85 0.68 0 0 Z " fill="#4C852D" transform="translate(407,124)"/>
<path d="M0 0 C2 0.875 2 0.875 4 2 C4.66 2.33 5.32 2.66 6 3 C6 4.32 6 5.64 6 7 C4.78441406 7.42152344 3.56882812 7.84304687 2.31640625 8.27734375 C0.73171808 8.83057808 -0.85291448 9.38397172 -2.4375 9.9375 C-3.23994141 10.21529297 -4.04238281 10.49308594 -4.86914062 10.77929688 C-5.63291016 11.04677734 -6.39667969 11.31425781 -7.18359375 11.58984375 C-7.89056396 11.83597412 -8.59753418 12.08210449 -9.32592773 12.33569336 C-11.00682632 12.87467975 -11.00682632 12.87467975 -12 14 C-13.99958364 14.04080783 -16.00045254 14.04254356 -18 14 C-19 11 -19 11 -19 7 C-17.79601562 6.57847656 -16.59203125 6.15695313 -15.3515625 5.72265625 C-13.77601743 5.16933983 -12.20049792 4.61595064 -10.625 4.0625 C-9.43390625 3.64581055 -9.43390625 3.64581055 -8.21875 3.22070312 C-7.45820313 2.95322266 -6.69765625 2.68574219 -5.9140625 2.41015625 C-5.2123291 2.16402588 -4.5105957 1.91789551 -3.78759766 1.66430664 C-1.93494905 1.01232236 -1.93494905 1.01232236 0 0 Z " fill="#679424" transform="translate(314,94)"/>
<path d="M0 0 C-6.625 3 -6.625 3 -10 3 C-10 3.99 -10 4.98 -10 6 C-11.98 6 -13.96 6 -16 6 C-16.33 6.99 -16.66 7.98 -17 9 C-18.07378906 9.06058594 -19.14757812 9.12117188 -20.25390625 9.18359375 C-21.69011315 9.26807651 -23.12631058 9.35272054 -24.5625 9.4375 C-25.26697266 9.47681641 -25.97144531 9.51613281 -26.69726562 9.55664062 C-31.1798541 9.82518279 -35.56293497 10.30616197 -40 11 C-39.01 11.33 -38.02 11.66 -37 12 C-36.3125 14.0625 -36.3125 14.0625 -36 16 C-34.35 16 -32.7 16 -31 16 C-30.67 16.66 -30.34 17.32 -30 18 C-29.01 18.33 -28.02 18.66 -27 19 C-27 19.66 -27 20.32 -27 21 C-34.75368936 18.96624541 -41.08297629 15.48568927 -47 10 C-47 9.01 -47 8.02 -47 7 C-45.94039062 7.06960937 -45.94039062 7.06960937 -44.859375 7.140625 C-31.36839658 7.61518203 -17.40586651 4.97788495 -4.99609375 -0.36328125 C-3 -1 -3 -1 0 0 Z M-19 9 C-16.375 8.8125 -16.375 8.8125 -14 9 C-13.67 9.66 -13.34 10.32 -13 11 C-15.70879335 12.35439668 -18.00933268 12.06501451 -21 12 C-20.34 11.01 -19.68 10.02 -19 9 Z " fill="#DCF69B" transform="translate(260,83)"/>
<path d="M0 0 C3 2 3 2 3.6875 4.625 C3.790625 5.40875 3.89375 6.1925 4 7 C1.41909233 8.31746333 -1.16450458 9.62909617 -3.75 10.9375 C-4.47960937 11.31068359 -5.20921875 11.68386719 -5.9609375 12.06835938 C-6.66992188 12.42607422 -7.37890625 12.78378906 -8.109375 13.15234375 C-9.08342285 13.6472229 -9.08342285 13.6472229 -10.07714844 14.15209961 C-12.03293079 15.01452116 -13.91540694 15.54374179 -16 16 C-16.99 14.68 -17.98 13.36 -19 12 C-18.3125 10.0625 -18.3125 10.0625 -17 8 C-14.375 7.25 -14.375 7.25 -12 7 C-12 6.34 -12 5.68 -12 5 C-10.07010241 4.10835739 -8.13075919 3.23713397 -6.1875 2.375 C-5.10855469 1.88773438 -4.02960938 1.40046875 -2.91796875 0.8984375 C-1.47357422 0.45371094 -1.47357422 0.45371094 0 0 Z " fill="#709E23" transform="translate(387,59)"/>
<path d="M0 0 C8.36576768 6.18532823 23.32792401 23.27298943 25 34 C23.515 33.505 23.515 33.505 22 33 C21.505 30.525 21.505 30.525 21 28 C19.68 28 18.36 28 17 28 C13 28 13 28 10 26 C10.66 24.35 11.32 22.7 12 21 C11.505 20.608125 11.01 20.21625 10.5 19.8125 C8.54406857 17.44908285 8.75792027 15.98564997 9 13 C8.34 13 7.68 13 7 13 C7 12.01 7 11.02 7 10 C6.01 9.67 5.02 9.34 4 9 C4 8.01 4 7.02 4 6 C1.69 5.34 -0.62 4.68 -3 4 C-2.67 3.34 -2.34 2.68 -2 2 C-1.34 2 -0.68 2 0 2 C0 1.34 0 0.68 0 0 Z " fill="#8CB750" transform="translate(320,99)"/>
<path d="M0 0 C4.18443025 2.78962017 4.42887255 5.87125224 5.6875 10.5625 C6.03641093 13.28400528 5.67978255 15.35640118 5 18 C4.01 17.67 3.02 17.34 2 17 C1.67 16.01 1.34 15.02 1 14 C0.2575 13.95875 -0.485 13.9175 -1.25 13.875 C-5.19110785 12.62101114 -6.13115514 10.59925676 -8 7 C-8.4375 4.25 -8.4375 4.25 -8 2 C-4.75366476 -0.1642235 -3.75698557 -0.37569856 0 0 Z " fill="#659740" transform="translate(349,143)"/>
<path d="M0 0 C3.23445244 4.85167866 2.57144254 10.56035516 2.74291992 16.2512207 C2.81216799 18.42706783 2.908138 20.60065934 3.00585938 22.77539062 C3.05371851 24.16140284 3.09999498 25.54747079 3.14453125 26.93359375 C3.18940674 28.19228271 3.23428223 29.45097168 3.28051758 30.74780273 C2.9814681 34.21485064 2.36937707 35.5235412 0 38 C-1.5084221 34.54478764 -2.37101679 31.43436946 -2.8515625 27.69921875 C-3.04492188 26.23452148 -3.04492188 26.23452148 -3.2421875 24.74023438 C-3.36851562 23.73283203 -3.49484375 22.72542969 -3.625 21.6875 C-3.82609375 20.14739258 -3.82609375 20.14739258 -4.03125 18.57617188 C-4.36004704 16.05148034 -4.68275917 13.52616521 -5 11 C-4.34 11 -3.68 11 -3 11 C-2.67 12.32 -2.34 13.64 -2 15 C-0.9458482 11.83754459 -0.68724328 9.13051782 -0.4375 5.8125 C-0.35371094 4.72582031 -0.26992188 3.63914063 -0.18359375 2.51953125 C-0.12300781 1.68808594 -0.06242187 0.85664063 0 0 Z " fill="#5E8653" transform="translate(411,141)"/>
<path d="M0 0 C1.18335938 0.00064453 2.36671875 0.00128906 3.5859375 0.00195312 C8.8994436 0.02887968 13.88930499 0.20952641 19.125 1.1875 C19.125 1.5175 19.125 1.8475 19.125 2.1875 C8.565 1.8575 -1.995 1.5275 -12.875 1.1875 C-12.875 1.8475 -12.875 2.5075 -12.875 3.1875 C-18.51216726 4.89773434 -24.104472 6.01463675 -29.9140625 6.95507812 C-34.59007097 7.77202555 -38.49879899 9.29370541 -42.875 11.1875 C-45.74609375 11.69921875 -45.74609375 11.69921875 -48.3125 11.875 C-49.60994141 11.97361328 -49.60994141 11.97361328 -50.93359375 12.07421875 C-51.57425781 12.11160156 -52.21492188 12.14898437 -52.875 12.1875 C-49.98368374 9.80525954 -47.44977309 8.52643965 -43.875 7.43359375 C-42.90433594 7.13646484 -41.93367188 6.83933594 -40.93359375 6.53320312 C-39.92425781 6.23349609 -38.91492188 5.93378906 -37.875 5.625 C-36.89660156 5.32142578 -35.91820312 5.01785156 -34.91015625 4.70507812 C-23.21106396 1.17690246 -12.20546505 -0.12883546 0 0 Z " fill="#DCF898" transform="translate(396.875,31.8125)"/>
<path d="M0 0 C2.93666859 1.46833429 3.2203737 3.46806592 4.4609375 6.4765625 C4.93112305 7.61601318 5.40130859 8.75546387 5.88574219 9.92944336 C6.37719727 11.14897705 6.86865234 12.36851074 7.375 13.625 C7.74800232 14.54588913 7.74800232 14.54588913 8.12854004 15.48538208 C18.27680149 40.61572554 18.27680149 40.61572554 16 47 C13.58314288 42.77050005 12.65166856 39.87664009 13 35 C12.34 35 11.68 35 11 35 C10.61908203 33.80503906 10.61908203 33.80503906 10.23046875 32.5859375 C8.12667666 26.02361749 8.12667666 26.02361749 5.3125 19.75 C3.58218214 16.12457209 3.34417868 12.99247267 3 9 C2.01 9 1.02 9 0 9 C-0.33 8.34 -0.66 7.68 -1 7 C-1.66 7 -2.32 7 -3 7 C-3 6.34 -3 5.68 -3 5 C-1.68 4.67 -0.36 4.34 1 4 C0.67 2.68 0.34 1.36 0 0 Z " fill="#A0C365" transform="translate(390,62)"/>
<path d="M0 0 C3.3058176 2.74464486 4.90684924 6.40271641 6.75 10.1875 C7.26626953 11.23478271 7.26626953 11.23478271 7.79296875 12.30322266 C10.30282306 17.44589574 12.69022832 22.63963744 15 27.875 C15.30260742 28.55844482 15.60521484 29.24188965 15.91699219 29.94604492 C18 34.75002748 18 34.75002748 18 37 C17.34 37 16.68 37 16 37 C16 36.01 16 35.02 16 34 C15.01 34 14.02 34 13 34 C12.34 34.66 11.68 35.32 11 36 C9.02861773 34.02861773 9.31357316 30.64297377 9 28 C9 26.68 9 25.36 9 24 C8.64654298 22.25681424 8.22591665 20.52630624 7.75 18.8125 C7.51796875 17.93207031 7.2859375 17.05164063 7.046875 16.14453125 C6.20687878 13.80323361 6.20687878 13.80323361 3.890625 13.19921875 C3.26671875 13.13347656 2.6428125 13.06773438 2 13 C1.31292445 10.50935112 1 8.62113708 1 6 C0.68578929 3.99690671 0.3548954 1.99628664 0 0 Z " fill="#619838" transform="translate(376,100)"/>
<path d="M0 0 C0.66 0.66 1.32 1.32 2 2 C1.67259314 9.84517215 -0.27293264 21.27293264 -6 27 C-8.65063757 24.34936243 -7.86323942 17.57783327 -8 14 C-7.82983658 11.26493429 -7.46816531 8.70495514 -7 6 C-5 8 -5 8 -4 11 C-2.68 7.37 -1.36 3.74 0 0 Z " fill="#688C79" transform="translate(408,260)"/>
<path d="M0 0 C0.33 0.66 0.66 1.32 1 2 C0.67 2.99 0.34 3.98 0 5 C1.00499132 7.62843884 1.44807371 8.72403685 4 10 C4 10.66 4 11.32 4 12 C5.65 11.34 7.3 10.68 9 10 C9 14.62 9 19.24 9 24 C7.68 22.35 6.36 20.7 5 19 C4.35160156 18.19820312 3.70320313 17.39640625 3.03515625 16.5703125 C-0.80337999 11.81204777 -4.50865974 7.01880162 -8 2 C-5.36 1.34 -2.72 0.68 0 0 Z " fill="#94B853" transform="translate(335,94)"/>
<path d="M0 0 C3.77081636 -0.0294985 7.54160231 -0.04696364 11.3125 -0.0625 C12.36501953 -0.07087891 13.41753906 -0.07925781 14.50195312 -0.08789062 C32.84796451 -0.14433989 32.84796451 -0.14433989 40 3 C40 3.33 40 3.66 40 4 C38.741875 4.020625 37.48375 4.04125 36.1875 4.0625 C35.47980469 4.07410156 34.77210938 4.08570313 34.04296875 4.09765625 C32 4 32 4 29 3 C26.79040747 2.84890907 24.57699953 2.75126199 22.36328125 2.68359375 C20.41518555 2.62075195 20.41518555 2.62075195 18.42773438 2.55664062 C17.05599239 2.51683013 15.68424756 2.47711784 14.3125 2.4375 C12.92902355 2.39429165 11.54555973 2.35067661 10.16210938 2.30664062 C6.77484281 2.20041972 3.38750201 2.09837642 0 2 C0 1.34 0 0.68 0 0 Z " fill="#C6F065" transform="translate(384,33)"/>
<path d="M0 0 C2.475 1.485 2.475 1.485 5 3 C4.67 3.99 4.34 4.98 4 6 C2.99582031 5.97679687 1.99164063 5.95359375 0.95703125 5.9296875 C-7.90216607 5.79044668 -16.26183602 6.32418773 -25 8 C-24.34 7.67 -23.68 7.34 -23 7 C-23 6.34 -23 5.68 -23 5 C-18.545 4.505 -18.545 4.505 -14 4 C-14 3.34 -14 2.68 -14 2 C-9.38 2 -4.76 2 0 2 C0 1.34 0 0.68 0 0 Z " fill="#B9D973" transform="translate(434,43)"/>
<path d="M0 0 C2 2 2 2 2.1953125 4.3828125 C2.17210937 5.28773438 2.14890625 6.19265625 2.125 7.125 C2.10695313 8.03507813 2.08890625 8.94515625 2.0703125 9.8828125 C2.04710937 10.58148438 2.02390625 11.28015625 2 12 C2.66 12 3.32 12 4 12 C4 17.61 4 23.22 4 29 C1.57995149 25.36992723 1.11835 21.96478573 0.4375 17.75 C0.24897461 16.64205078 0.24897461 16.64205078 0.05664062 15.51171875 C-0.18998293 14.0474721 -0.42921197 12.58195875 -0.66064453 11.11523438 C-0.98424417 9.09820755 -1.34853227 7.0878339 -1.71484375 5.078125 C-1.80894531 4.06234375 -1.90304687 3.0465625 -2 2 C-1.34 1.34 -0.68 0.68 0 0 Z " fill="#679A41" transform="translate(407,124)"/>
<path d="M0 0 C2.22053029 2.05448353 3.66213753 3.94818116 5.0078125 6.65234375 C5.35457031 7.34650391 5.70132812 8.04066406 6.05859375 8.75585938 C6.41050781 9.47580078 6.76242187 10.19574219 7.125 10.9375 C7.48464844 11.65357422 7.84429687 12.36964844 8.21484375 13.10742188 C9.84279498 16.39685892 11.20180247 19.40113562 12 23 C11.01 23 10.02 23 9 23 C8.82984375 22.36191406 8.6596875 21.72382812 8.484375 21.06640625 C8.24203125 20.24011719 7.9996875 19.41382812 7.75 18.5625 C7.51796875 17.73878906 7.2859375 16.91507813 7.046875 16.06640625 C6.19229321 13.80004532 6.19229321 13.80004532 3.890625 13.21484375 C3.26671875 13.14394531 2.6428125 13.07304688 2 13 C1.31292445 10.50935112 1 8.62113708 1 6 C0.68578929 3.99690671 0.3548954 1.99628664 0 0 Z " fill="#99BB6F" transform="translate(376,100)"/>
<path d="M0 0 C-0.226875 0.598125 -0.45375 1.19625 -0.6875 1.8125 C-0.8421875 2.8953125 -0.8421875 2.8953125 -1 4 C0.39588754 5.64594139 0.39588754 5.64594139 2 7 C2 7.66 2 8.32 2 9 C2.99 8.67 3.98 8.34 5 8 C5 9.32 5 10.64 5 12 C1.26427172 10.37228982 -1.61658392 8.01966695 -4.75 5.4375 C-5.73484375 4.63183594 -6.7196875 3.82617188 -7.734375 2.99609375 C-8.48203125 2.33738281 -9.2296875 1.67867188 -10 1 C-10 0.67 -10 0.34 -10 0 C-6.33694766 -0.74926071 -3.57644848 -1.2380014 0 0 Z " fill="#9CC354" transform="translate(306,108)"/>
<path d="M0 0 C0 0.99 0 1.98 0 3 C-2.66666667 4.33333333 -5.33333333 5.66666667 -8 7 C-8.6290625 7.3609375 -9.258125 7.721875 -9.90625 8.09375 C-12.54843677 9.23738308 -14.8846194 9.42032996 -17.75 9.625 C-19.22726562 9.73714844 -19.22726562 9.73714844 -20.734375 9.8515625 C-21.48203125 9.90054688 -22.2296875 9.94953125 -23 10 C-20.30244281 7.30244281 -17.12319547 6.33832478 -13.625 5 C-8.56614289 3.06962004 -8.56614289 3.06962004 -3.6484375 0.8125 C-2 0 -2 0 0 0 Z " fill="#D5F585" transform="translate(283,72)"/>
<path d="M0 0 C0.33 0 0.66 0 1 0 C1.21750435 4.34094502 1.4142664 8.68219117 1.59204102 13.02490234 C1.655384 14.50139336 1.72434226 15.97765479 1.79907227 17.45361328 C1.90565389 19.57809272 1.9918628 21.70258541 2.07421875 23.828125 C2.13182373 25.1059082 2.18942871 26.38369141 2.2487793 27.70019531 C1.98399476 31.21229323 1.40571487 32.50355532 -1 35 C-2.80230168 31.17010894 -3.19622241 28.21878192 -3 24 C-2.67 25.32 -2.34 26.64 -2 28 C-1.34 28 -0.68 28 0 28 C0 18.76 0 9.52 0 0 Z " fill="#D3E0D0" transform="translate(412,144)"/>
<path d="M0 0 C-6.625 3 -6.625 3 -10 3 C-10 3.99 -10 4.98 -10 6 C-11.98 6 -13.96 6 -16 6 C-16.33 6.99 -16.66 7.98 -17 9 C-17.99 8.34 -18.98 7.68 -20 7 C-19.34 7 -18.68 7 -18 7 C-18 6.01 -18 5.02 -18 4 C-15.56592995 3.13475247 -13.12856816 2.28257135 -10.6875 1.4375 C-9.99720703 1.19064453 -9.30691406 0.94378906 -8.59570312 0.68945312 C-3.33984375 -1.11328125 -3.33984375 -1.11328125 0 0 Z M-19 9 C-16.375 8.8125 -16.375 8.8125 -14 9 C-13.67 9.66 -13.34 10.32 -13 11 C-15.70879335 12.35439668 -18.00933268 12.06501451 -21 12 C-20.34 11.01 -19.68 10.02 -19 9 Z " fill="#CFF57A" transform="translate(260,83)"/>
<path d="M0 0 C1.32 0 2.64 0 4 0 C4.12375 0.639375 4.2475 1.27875 4.375 1.9375 C4.684375 2.9584375 4.684375 2.9584375 5 4 C5.66 4.33 6.32 4.66 7 5 C7 4.34 7 3.68 7 3 C7.66 3 8.32 3 9 3 C9 3.66 9 4.32 9 5 C9.66 5 10.32 5 11 5 C11.66 8.63 12.32 12.26 13 16 C9.77531104 12.87608257 6.70607022 9.63668034 3.6875 6.3125 C2.99011719 5.54550781 2.29273438 4.77851563 1.57421875 3.98828125 C0 2 0 2 0 0 Z " fill="#7FA272" transform="translate(347,156)"/>
<path d="M0 0 C1.875 0.1875 1.875 0.1875 4 1 C5.4375 3.25 5.4375 3.25 6 6 C4.75 8.8125 4.75 8.8125 3 11 C2.34 11 1.68 11 1 11 C-0.98 7.535 -0.98 7.535 -3 4 C-2.01 2.68 -1.02 1.36 0 0 Z " fill="#709D52" transform="translate(344,145)"/>
<path d="M0 0 C2 2 2 2 3 5.0625 C3.65752556 8.12150806 3.65752556 8.12150806 6 9 C7.24953205 12.36352022 7.10109961 15.69883603 7.0625 19.25 C7.05347656 20.32765625 7.04445313 21.4053125 7.03515625 22.515625 C7.02355469 23.33546875 7.01195312 24.1553125 7 25 C6.67 25 6.34 25 6 25 C5.67 21.7 5.34 18.4 5 15 C4.34 15 3.68 15 3 15 C1.094753 9.89665983 -0.42589023 5.53657294 0 0 Z " fill="#42762E" transform="translate(403,137)"/>
<path d="M0 0 C2 0 2 0 3.625 1.5 C4.07875 1.995 4.5325 2.49 5 3 C6.093125 2.484375 7.18625 1.96875 8.3125 1.4375 C12 0 12 0 15 1 C13.06745228 3.0245738 11.36841312 4.42105792 9 6 C9.33 8.31 9.66 10.62 10 13 C6.07523398 9.29950632 3.01551157 5.48018862 0 1 C0 0.67 0 0.34 0 0 Z " fill="#ADD167" transform="translate(367,71)"/>
<path d="M0 0 C0.99 0 1.98 0 3 0 C3 0.99 3 1.98 3 3 C3.66 3 4.32 3 5 3 C5.33 2.01 5.66 1.02 6 0 C8.56687367 3.8503105 7.83288724 5.58569763 7 10 C5.68127338 9.60348083 4.37002899 9.18201309 3.0625 8.75 C2.33160156 8.51796875 1.60070312 8.2859375 0.84765625 8.046875 C-1 7 -1 7 -1.87890625 5.078125 C-2 3 -2 3 0 0 Z " fill="#639A2E" transform="translate(331,131)"/>
<path d="M0 0 C3.28217533 1.64108767 3.9066035 5.17347434 5.1875 8.4375 C5.47302734 9.13166016 5.75855469 9.82582031 6.05273438 10.54101562 C6.76695073 12.33611416 7.39030809 14.16676255 8 16 C7.67 16.66 7.34 17.32 7 18 C6.01 18 5.02 18 4 18 C3.67 15.03 3.34 12.06 3 9 C2.01 9 1.02 9 0 9 C-0.33 8.34 -0.66 7.68 -1 7 C-1.66 7 -2.32 7 -3 7 C-3 6.34 -3 5.68 -3 5 C-1.68 4.67 -0.36 4.34 1 4 C0.67 2.68 0.34 1.36 0 0 Z " fill="#A9D05F" transform="translate(390,62)"/>
<path d="M0 0 C2.97246802 2.54782974 4.41535288 5.45340883 6 9 C6 9.66 6 10.32 6 11 C6.99 11.33 7.98 11.66 9 12 C10.203125 13.9609375 10.203125 13.9609375 11.25 16.375 C11.60578125 17.16648438 11.9615625 17.95796875 12.328125 18.7734375 C13 21 13 21 12 24 C11.15885829 22.56705502 10.32734313 21.12845595 9.5 19.6875 C8.80390625 18.48673828 8.80390625 18.48673828 8.09375 17.26171875 C7 15 7 15 7 12 C5.68 12.33 4.36 12.66 3 13 C2 11 2 11 1.5 8.4375 C1.24588052 6.06234893 1.24588052 6.06234893 0 5 C-0.04063832 3.33382885 -0.042721 1.66611905 0 0 Z " fill="#B2C9A2" transform="translate(352,145)"/>
<path d="M0 0 C3.68000434 2.75839204 6.49505889 5.62075382 9.3125 9.25 C10.00988281 10.14203125 10.70726562 11.0340625 11.42578125 11.953125 C11.94527344 12.62859375 12.46476562 13.3040625 13 14 C12.67 14.66 12.34 15.32 12 16 C9.5 14.6875 9.5 14.6875 7 13 C7 12.01 7 11.02 7 10 C6.01 9.67 5.02 9.34 4 9 C4 8.01 4 7.02 4 6 C1.69 5.34 -0.62 4.68 -3 4 C-2.67 3.34 -2.34 2.68 -2 2 C-1.34 2 -0.68 2 0 2 C0 1.34 0 0.68 0 0 Z " fill="#B0CE81" transform="translate(320,99)"/>
<path d="M0 0 C0.763125 0.309375 1.52625 0.61875 2.3125 0.9375 C4.18789677 1.67893593 6.08684652 2.36228217 8 3 C8.6875 5.0625 8.6875 5.0625 9 7 C10.65 7 12.3 7 14 7 C14.33 7.66 14.66 8.32 15 9 C15.99 9.33 16.98 9.66 18 10 C18 10.66 18 11.32 18 12 C11.43328221 10.26711614 5.91152162 7.81128649 1 3 C0.67 2.01 0.34 1.02 0 0 Z " fill="#B4D669" transform="translate(215,92)"/>
<path d="M0 0 C-1.1328125 1.98046875 -1.1328125 1.98046875 -3 4 C-5.7421875 4.42578125 -5.7421875 4.42578125 -8.875 4.3125 C-10.41800781 4.27576172 -10.41800781 4.27576172 -11.9921875 4.23828125 C-14.73944685 4.02064122 -17.31551339 3.60921006 -20 3 C-20 2.67 -20 2.34 -20 2 C-17.79248152 1.66131223 -15.58394089 1.32928311 -13.375 1 C-12.14523438 0.814375 -10.91546875 0.62875 -9.6484375 0.4375 C-6.3833973 0.04597484 -3.28287549 -0.08080924 0 0 Z " fill="#BAF13F" transform="translate(242,91)"/>
<path d="M0 0 C3.27742098 3.10026309 5.93104837 5.97098894 8 10 C8 10.66 8 11.32 8 12 C7.38125 11.835 6.7625 11.67 6.125 11.5 C3.48243927 10.87822101 2.4501347 10.77493265 0 12 C0.875 8.125 0.875 8.125 2 7 C0.68 6.67 -0.64 6.34 -2 6 C-0.68 5.67 0.64 5.34 2 5 C1.34 3.35 0.68 1.7 0 0 Z " fill="#9DC754" transform="translate(360,75)"/>
<path d="M0 0 C0.99 0.66 1.98 1.32 3 2 C0.36 2.99 -2.28 3.98 -5 5 C-5 6.98 -5 8.96 -5 11 C-7.4375 10.3125 -7.4375 10.3125 -10 9 C-10.66015625 6.41796875 -10.66015625 6.41796875 -11 4 C-10.28972656 3.79503906 -9.57945312 3.59007813 -8.84765625 3.37890625 C-7.92855469 3.10949219 -7.00945312 2.84007813 -6.0625 2.5625 C-4.68771484 2.16224609 -4.68771484 2.16224609 -3.28515625 1.75390625 C-1.0597507 1.20973949 -1.0597507 1.20973949 0 0 Z " fill="#8BBC39" transform="translate(301,97)"/>
<path d="M0 0 C2.64 0 5.28 0 8 0 C4.72124211 3.27875789 0.07812476 4.26611678 -4.234375 5.7890625 C-8.48379111 7.27800741 -8.48379111 7.27800741 -12 10 C-11.67 8.68 -11.34 7.36 -11 6 C-10.34 6 -9.68 6 -9 6 C-9 5.34 -9 4.68 -9 4 C-5.86501708 2.14223235 -3.62528568 1.79859524 0 2 C0 1.34 0 0.68 0 0 Z " fill="#CBE38F" transform="translate(401,51)"/>
<path d="M0 0 C0.66 0 1.32 0 2 0 C1.45018084 6.04801071 0.09570426 11.30601106 -2 17 C-4.92965912 14.07034088 -5.94133569 11.319947 -6.125 7.1875 C-6.08375 6.465625 -6.0425 5.74375 -6 5 C-5.01 5.495 -5.01 5.495 -4 6 C-4.33 6.66 -4.66 7.32 -5 8 C-3.68 7.67 -2.36 7.34 -1 7 C-1.020625 6.030625 -1.04125 5.06125 -1.0625 4.0625 C-1 1 -1 1 0 0 Z " fill="#12502D" transform="translate(407,256)"/>
<path d="M0 0 C0.66 0.33 1.32 0.66 2 1 C1.95875 2.299375 1.9175 3.59875 1.875 4.9375 C1.84809721 9.20159183 2.55453028 12.87924152 3.7578125 16.95703125 C4 19 4 19 2 23 C2 19.7 2 16.4 2 13 C1.34 13 0.68 13 0 13 C-0.94738023 10.15785932 -1.13460559 8.32391609 -1.125 5.375 C-1.12757813 4.57835937 -1.13015625 3.78171875 -1.1328125 2.9609375 C-1 1 -1 1 0 0 Z " fill="#14512C" transform="translate(396,219)"/>
<path d="M0 0 C1.875 0.625 1.875 0.625 4 2 C5.3125 5 5.3125 5 6 8 C5.67 8.66 5.34 9.32 5 10 C4.01 9.67 3.02 9.34 2 9 C1.67 8.01 1.34 7.02 1 6 C0.01 5.67 -0.98 5.34 -2 5 C-1.34 3.35 -0.68 1.7 0 0 Z " fill="#4E8331" transform="translate(349,151)"/>
<path d="M0 0 C1.65 0.99 3.3 1.98 5 3 C4.67 3.99 4.34 4.98 4 6 C4.99 6.33 5.98 6.66 7 7 C9.25 9.8125 9.25 9.8125 11 13 C10.609375 15.19921875 10.609375 15.19921875 10 17 C8.32771465 14.545324 6.6620314 12.08660326 5 9.625 C4.52304687 8.92632812 4.04609375 8.22765625 3.5546875 7.5078125 C2.87792969 6.50234375 2.87792969 6.50234375 2.1875 5.4765625 C1.76855469 4.85861816 1.34960938 4.24067383 0.91796875 3.60400391 C0 2 0 2 0 0 Z " fill="#A3BF8D" transform="translate(352,129)"/>
<path d="M0 0 C0.66 0.33 1.32 0.66 2 1 C2 5.29 2 9.58 2 14 C-3 7.75 -3 7.75 -3 2 C-2.01 1.34 -1.02 0.68 0 0 Z " fill="#94B85E" transform="translate(342,104)"/>
<path d="M0 0 C2.30874711 2.16614803 4.05290181 4.39206608 5.75 7.0625 C6.19859375 7.75472656 6.6471875 8.44695312 7.109375 9.16015625 C7.40328125 9.76730469 7.6971875 10.37445313 8 11 C7.67 11.66 7.34 12.32 7 13 C5.68 12.34 4.36 11.68 3 11 C3 10.01 3 9.02 3 8 C2.01 8 1.02 8 0 8 C0 5.36 0 2.72 0 0 Z " fill="#A5C774" transform="translate(368,87)"/>
<path d="M0 0 C2 1 2 1 3 3.875 C3.33 4.90625 3.66 5.9375 4 7 C4.99 8.485 4.99 8.485 6 10 C5.625 12.6875 5.625 12.6875 5 15 C3.68 14.34 2.36 13.68 1 13 C1.66 12.67 2.32 12.34 3 12 C2.505 10.948125 2.01 9.89625 1.5 8.8125 C0.17220212 5.74547391 -0.30715006 3.37865064 0 0 Z " fill="#EDF3EB" transform="translate(365,169)"/>
<path d="M0 0 C0.33 0 0.66 0 1 0 C1 5.61 1 11.22 1 17 C-1.26954631 13.59568053 -1.36549949 11.83475798 -1.625 7.8125 C-1.69976562 6.72582031 -1.77453125 5.63914063 -1.8515625 4.51953125 C-1.90054687 3.68808594 -1.94953125 2.85664063 -2 2 C-1.34 2 -0.68 2 0 2 C0 1.34 0 0.68 0 0 Z " fill="#598E43" transform="translate(410,136)"/>
<path d="M0 0 C2.71567296 2.71567296 3.24031242 5.76406108 4.1875 9.375 C4.47270508 10.38433594 4.47270508 10.38433594 4.76367188 11.4140625 C5.69373485 14.90094068 6.37823351 17.57636262 5 21 C1.17509104 14.56719856 0 7.43254322 0 0 Z " fill="#BED7A0" transform="translate(401,88)"/>
<path d="M0 0 C2.58621263 2.23997105 3.47379383 3.84266831 4.125 7.1875 C4.2796875 7.97382813 4.434375 8.76015625 4.59375 9.5703125 C5.1738332 13.03965624 5.61852358 16.50313278 6 20 C4.01458269 17.02187403 3.01174724 14.50156031 1.875 11.125 C1.52179688 10.09632813 1.16859375 9.06765625 0.8046875 8.0078125 C0.04623113 5.17280569 -0.16126892 2.91359176 0 0 Z " fill="#235833" transform="translate(388,199)"/>
<path d="M0 0 C0.66 0 1.32 0 2 0 C2.66 1.65 3.32 3.3 4 5 C5.65 4.67 7.3 4.34 9 4 C7.84826645 6.46800047 6.95216435 8.04783565 5 10 C1.64085078 7.76056718 1.18318364 6.73157917 0 3 C0 2.01 0 1.02 0 0 Z " fill="#2A6330" transform="translate(383,186)"/>
<path d="M0 0 C1.875 1.5625 1.875 1.5625 3 3 C-0.47512718 4.15837573 -2.13670286 3.77265943 -5.6875 3.0625 C-6.68136719 2.86785156 -7.67523438 2.67320313 -8.69921875 2.47265625 C-9.45847656 2.31667969 -10.21773438 2.16070312 -11 2 C-6.62907977 -0.91394682 -5.15124077 -1.26152835 0 0 Z " fill="#B9F140" transform="translate(432,42)"/>
<path d="M0 0 C0.33 0 0.66 0 1 0 C1.66 5.61 2.32 11.22 3 17 C2.34 17 1.68 17 1 17 C1 15.35 1 13.7 1 12 C0.34 12 -0.32 12 -1 12 C-1.02698189 10.37509046 -1.04638757 8.75005367 -1.0625 7.125 C-1.07410156 6.22007812 -1.08570313 5.31515625 -1.09765625 4.3828125 C-1 2 -1 2 0 0 Z " fill="#ADC698" transform="translate(410,124)"/>
<path d="M0 0 C0.66 1.32 1.32 2.64 2 4 C-0.97 3.505 -0.97 3.505 -4 3 C-4.33 4.32 -4.66 5.64 -5 7 C-6.32 5.68 -7.64 4.36 -9 3 C-5.92807025 0.26939578 -4.09590633 -0.34132553 0 0 Z " fill="#C3DD90" transform="translate(323,90)"/>
<path d="M0 0 C0.99 0.495 0.99 0.495 2 1 C2 1.66 2 2.32 2 3 C2.66 3.33 3.32 3.66 4 4 C7 9.42307692 7 9.42307692 7 12 C4.03 11.505 4.03 11.505 1 11 C0.67 7.37 0.34 3.74 0 0 Z " fill="#A2C085" transform="translate(345,133)"/>
<path d="M0 0 C1.65 0 3.3 0 5 0 C5.33 1.65 5.66 3.3 6 5 C7.32 5.33 8.64 5.66 10 6 C10.33 7.65 10.66 9.3 11 11 C6.86378916 7.6189962 3.18683431 4.33409466 0 0 Z " fill="#ABC786" transform="translate(315,123)"/>
<path d="M0 0 C0.66 0.33 1.32 0.66 2 1 C1.1875 3.4375 1.1875 3.4375 0 6 C-3 7 -3 7 -6 6 C-8.63804589 6.39397335 -8.63804589 6.39397335 -11 7 C-9.60623819 4.21247638 -7.82491442 3.69568885 -5.0625 2.3125 C-4.16660156 1.85488281 -3.27070313 1.39726563 -2.34765625 0.92578125 C-1.57292969 0.62027344 -0.79820312 0.31476563 0 0 Z " fill="#84B632" transform="translate(344,88)"/>
<path d="M0 0 C0 0.99 0 1.98 0 3 C-0.66 3 -1.32 3 -2 3 C-1.835 3.763125 -1.67 4.52625 -1.5 5.3125 C-1 8 -1 8 -1 11 C-3.31 8.36 -5.62 5.72 -8 3 C-5.07735566 1.53867783 -3.07536854 0.65900754 0 0 Z " fill="#ACCC72" transform="translate(335,94)"/>
<path d="M0 0 C-0.33 0.66 -0.66 1.32 -1 2 C-1.66 2 -2.32 2 -3 2 C-3 2.66 -3 3.32 -3 4 C-6.3 4.33 -9.6 4.66 -13 5 C-4.38461538 -1.46153846 -4.38461538 -1.46153846 0 0 Z " fill="#D3F582" transform="translate(321,55)"/>
<path d="M0 0 C2.4375 0.6875 2.4375 0.6875 5 2 C5.9375 4.5 5.9375 4.5 6 7 C5.34 7.66 4.68 8.32 4 9 C0 3.375 0 3.375 0 0 Z " fill="#6EA440" transform="translate(341,135)"/>
<path d="M0 0 C1.32 0.33 2.64 0.66 4 1 C4 1.66 4 2.32 4 3 C5.32 3.33 6.64 3.66 8 4 C8 6.31 8 8.62 8 11 C4.32966073 7.72291137 2.30718811 4.28477792 0 0 Z " fill="#A6C382" transform="translate(344,118)"/>
<path d="M0 0 C1.65 0 3.3 0 5 0 C5 1.98 5 3.96 5 6 C5.66 6 6.32 6 7 6 C6.67 6.99 6.34 7.98 6 9 C5.67 8.34 5.34 7.68 5 7 C2.97536745 6.34786708 2.97536745 6.34786708 1 6 C0.67 4.02 0.34 2.04 0 0 Z " fill="#70A232" transform="translate(343,112)"/>
<path d="M0 0 C0.33 0 0.66 0 1 0 C2.45184478 4.53701494 3.23509196 8.18061476 3 13 C2.01 12.67 1.02 12.34 0 12 C-1.16063604 7.74433453 -0.76173392 4.3164922 0 0 Z " fill="#B1CA97" transform="translate(407,109)"/>
<path d="M0 0 C0.33 0.66 0.66 1.32 1 2 C3.31 2 5.62 2 8 2 C8 2.66 8 3.32 8 4 C2.78020872 4.1799928 -1.07262981 3.97094808 -6 2 C-6 1.67 -6 1.34 -6 1 C-4.02 0.67 -2.04 0.34 0 0 Z " fill="#B3D271" transform="translate(239,103)"/>
<path d="M0 0 C-1.86502588 2.62799102 -3.30410791 3.86365751 -6.4921875 4.48828125 C-8.9964272 4.72593573 -11.48653979 4.9040664 -14 5 C-11.38991565 2.91661429 -9.00472567 1.41620956 -5.875 0.25 C-5.19179688 -0.01296875 -4.50859375 -0.2759375 -3.8046875 -0.546875 C-2 -1 -2 -1 0 0 Z " fill="#DAF797" transform="translate(344,45)"/>
<path d="M0 0 C1.77348504 0.03810794 3.54554939 0.15569776 5.3125 0.3125 C6.76076172 0.43044922 6.76076172 0.43044922 8.23828125 0.55078125 C11 1 11 1 15 3 C11.04 2.67 7.08 2.34 3 2 C3 2.66 3 3.32 3 4 C2.01 4 1.02 4 0 4 C-0.33 3.01 -0.66 2.02 -1 1 C-0.67 0.67 -0.34 0.34 0 0 Z " fill="#A1D632" transform="translate(417,43)"/>
<path d="M0 0 C2 3 2 3 2 5 C2.66 5 3.32 5 4 5 C4 9.29 4 13.58 4 18 C3.67 18 3.34 18 3 18 C2.49490792 15.75113762 1.99610821 13.50086131 1.5 11.25 C1.2215625 9.99703125 0.943125 8.7440625 0.65625 7.453125 C0 4 0 4 0 0 Z " fill="#EBF3E9" transform="translate(405,173)"/>
<path d="M0 0 C0.99 0 1.98 0 3 0 C3.66 1.98 4.32 3.96 5 6 C3.68 6.99 2.36 7.98 1 9 C0.67 6.03 0.34 3.06 0 0 Z " fill="#346F2C" transform="translate(379,171)"/>
<path d="M0 0 C2.475 0.99 2.475 0.99 5 2 C5 4.64 5 7.28 5 10 C1.94597912 8.47298956 1.34130519 6.04842088 0 3 C0 2.01 0 1.02 0 0 Z " fill="#A6C579" transform="translate(384,96)"/>
<path d="M0 0 C1.65 0.99 3.3 1.98 5 3 C4.67 3.99 4.34 4.98 4 6 C-1.28 5.67 -6.56 5.34 -12 5 C-12 4.67 -12 4.34 -12 4 C-5.565 3.505 -5.565 3.505 1 3 C0.67 2.01 0.34 1.02 0 0 Z " fill="#DDF4AE" transform="translate(434,43)"/>
<path d="M0 0 C2.80561393 1.40280696 3.00680507 3.0509005 4.125 5.9375 C4.47820312 6.83339844 4.83140625 7.72929687 5.1953125 8.65234375 C6 11 6 11 6 13 C5.34 13 4.68 13 4 13 C4 12.01 4 11.02 4 10 C3.01 9.67 2.02 9.34 1 9 C0.67 6.03 0.34 3.06 0 0 Z " fill="#A3BF90" transform="translate(388,124)"/>
<path d="M0 0 C2.97 0.495 2.97 0.495 6 1 C2.267612 4.57011026 -2.0949989 5.10913442 -7 6 C-2.25 2 -2.25 2 0 2 C0 1.34 0 0.68 0 0 Z " fill="#659320" transform="translate(313,99)"/>
<path d="M0 0 C1.98 0 3.96 0 6 0 C6 0.66 6 1.32 6 2 C8.64 2 11.28 2 14 2 C14 2.33 14 2.66 14 3 C9.33333333 3 4.66666667 3 0 3 C0 2.01 0 1.02 0 0 Z " fill="#D5ED8F" transform="translate(213,90)"/>
<path d="M0 0 C1.1875 2.5625 1.1875 2.5625 2 5 C0.02 4.01 -1.96 3.02 -4 2 C-4.33 2.66 -4.66 3.32 -5 4 C-6.32 4 -7.64 4 -9 4 C-9 3.34 -9 2.68 -9 2 C-3.375 -1.125 -3.375 -1.125 0 0 Z " fill="#6C972A" transform="translate(360,75)"/>
<path d="M0 0 C2.75 0.0625 2.75 0.0625 6 1 C7.76511299 3.22511214 8.77297776 5.40437603 10 8 C6.05205855 6.32971708 3.18203882 3.8204435 0 1 C0 0.67 0 0.34 0 0 Z " fill="#BBD384" transform="translate(296,108)"/>
<path d="M0 0 C5.75 -0.125 5.75 -0.125 8 1 C8.625 4.0625 8.625 4.0625 9 7 C8.34 7 7.68 7 7 7 C6.6596875 6.071875 6.6596875 6.071875 6.3125 5.125 C4.62070165 2.38589791 3.00755839 1.94975528 0 1 C0 0.67 0 0.34 0 0 Z " fill="#79AB35" transform="translate(314,121)"/>
<path d="M0 0 C6.15234375 0.5859375 6.15234375 0.5859375 8 1 C8.33 1.66 8.66 2.32 9 3 C9.99 3.33 10.98 3.66 12 4 C12 4.66 12 5.32 12 6 C10.55903414 5.57405412 9.12231288 5.13373367 7.6875 4.6875 C6.88699219 4.44386719 6.08648437 4.20023437 5.26171875 3.94921875 C2.90035427 2.95817977 1.66120007 1.91925057 0 0 Z " fill="#C4E08A" transform="translate(221,98)"/>
<path d="M0 0 C0 0.99 0 1.98 0 3 C-3.96 4.98 -3.96 4.98 -8 7 C-7.39816251 4.97954558 -6.72693904 2.97888961 -6 1 C-4 0 -4 0 0 0 Z " fill="#C1DF7D" transform="translate(367,68)"/>
<path d="M0 0 C0.33 0 0.66 0 1 0 C1.144375 1.2375 1.28875 2.475 1.4375 3.75 C1.71549453 6.06389568 2.03806239 8.13148826 2.6875 10.375 C2.790625 10.91125 2.89375 11.4475 3 12 C2.34 12.66 1.68 13.32 1 14 C-0.80707581 12.19292419 -0.42307598 9.44616525 -0.625 7 C-0.72039062 5.906875 -0.81578125 4.81375 -0.9140625 3.6875 C-0.94242187 2.800625 -0.97078125 1.91375 -1 1 C-0.67 0.67 -0.34 0.34 0 0 Z " fill="#879F91" transform="translate(401,273)"/>
<path d="M0 0 C0.66 0.33 1.32 0.66 2 1 C3.28317892 4.84953676 3.06643637 7.94738135 3 12 C2.67 10.68 2.34 9.36 2 8 C1.34 8 0.68 8 0 8 C-0.38063221 5.6739143 -0.71269945 3.33944736 -1 1 C-0.67 0.67 -0.34 0.34 0 0 Z " fill="#427737" transform="translate(402,169)"/>
<path d="M0 0 C0.99 0 1.98 0 3 0 C2.814375 0.763125 2.62875 1.52625 2.4375 2.3125 C1.77180827 5.08967375 1.77180827 5.08967375 3 8 C1.68 7.67 0.36 7.34 -1 7 C-1.625 5.1875 -1.625 5.1875 -2 3 C-1.34 2.01 -0.68 1.02 0 0 Z " fill="#6E9C37" transform="translate(331,131)"/>
<path d="M0 0 C3.82669043 3.42388092 5.72278474 6.00724943 7 11 C6.01 10.67 5.02 10.34 4 10 C3.67 8.35 3.34 6.7 3 5 C2.34 5 1.68 5 1 5 C0.67 3.35 0.34 1.7 0 0 Z " fill="#ABC88B" transform="translate(338,122)"/>
<path d="M0 0 C1.99097846 2.98646769 2.94124926 5.59687262 4 9 C2.68 8.67 1.36 8.34 0 8 C-0.38063221 5.6739143 -0.71269945 3.33944736 -1 1 C-0.67 0.67 -0.34 0.34 0 0 Z " fill="#8AAF66" transform="translate(392,108)"/>
<path d="M0 0 C1.65 0 3.3 0 5 0 C5 1.98 5 3.96 5 6 C2.525 5.01 2.525 5.01 0 4 C0 2.68 0 1.36 0 0 Z " fill="#89AB52" transform="translate(291,102)"/>
<path d="M0 0 C1.7074998 1.28062485 3.37373596 2.61767557 5 4 C5 4.66 5 5.32 5 6 C1.62537285 5.45276317 -0.08235 4.9451 -3 3 C-2.01 2.67 -1.02 2.34 0 2 C0 1.34 0 0.68 0 0 Z " fill="#A9CC68" transform="translate(320,99)"/>
<path d="M0 0 C2.95183101 2.95183101 3.08663988 5.95511947 4 10 C3.01 10.33 2.02 10.66 1 11 C-0.17571451 7.32589215 -0.07366746 3.83070817 0 0 Z " fill="#B4D479" transform="translate(394,70)"/>
<path d="M0 0 C2.96052484 3.36423277 3.92289822 6.69159287 5 11 C4.01 11 3.02 11 2 11 C0.57741188 7.17679443 -0.24042276 4.08718695 0 0 Z " fill="#AAC592" transform="translate(383,112)"/>
<path d="M0 0 C0.99 0.33 1.98 0.66 3 1 C3 1.99 3 2.98 3 4 C3.66 4.33 4.32 4.66 5 5 C5.73075648 7.3140622 6.40138258 9.64828869 7 12 C3.71534104 9.20803989 1.98678042 5.76803183 0 2 C0 1.34 0 0.68 0 0 Z " fill="#C1D897" transform="translate(377,84)"/>
<path d="M0 0 C0.99 0 1.98 0 3 0 C3.66 1.98 4.32 3.96 5 6 C4.01 6 3.02 6 2 6 C2 5.34 2 4.68 2 4 C1.34 4 0.68 4 0 4 C-0.33 3.01 -0.66 2.02 -1 1 C-0.67 0.67 -0.34 0.34 0 0 Z " fill="#65914F" transform="translate(356,157)"/>
<path d="M0 0 C0.99 0.66 1.98 1.32 3 2 C3 2.99 3 3.98 3 5 C0.36 4.34 -2.28 3.68 -5 3 C-3 1 -3 1 0 0 Z " fill="#78A22D" transform="translate(387,59)"/>
<path d="M0 0 C0.33 0.99 0.66 1.98 1 3 C1.66 3 2.32 3 3 3 C3 5.64 3 8.28 3 11 C0.60236815 8.60236815 0.65719414 7.66726502 0.375 4.375 C0.30023438 3.55773437 0.22546875 2.74046875 0.1484375 1.8984375 C0.09945313 1.27195313 0.05046875 0.64546875 0 0 Z " fill="#8BA996" transform="translate(395,229)"/>
<path d="M0 0 C0.66 0 1.32 0 2 0 C5.07692308 5.41538462 5.07692308 5.41538462 4.6875 8.375 C4.460625 8.91125 4.23375 9.4475 4 10 C2 7 2 7 2 3 C1.34 3 0.68 3 0 3 C0 2.01 0 1.02 0 0 Z " fill="#729666" transform="translate(360,163)"/>
<path d="M0 0 C1.98 0.99 1.98 0.99 4 2 C3.67 4.64 3.34 7.28 3 10 C0.70366176 6.55549263 0.45983515 4.06187717 0 0 Z M2 2 C3 4 3 4 3 4 Z " fill="#7CA55C" transform="translate(395,118)"/>
<path d="M0 0 C0.33 1.32 0.66 2.64 1 4 C1.66 4 2.32 4 3 4 C3 6.31 3 8.62 3 11 C2.34 10.67 1.68 10.34 1 10 C0.5859375 7.71484375 0.5859375 7.71484375 0.375 4.9375 C0.30023438 4.01839844 0.22546875 3.09929687 0.1484375 2.15234375 C0.09945313 1.44207031 0.05046875 0.73179687 0 0 Z " fill="#A6BDA6" transform="translate(409,168)"/>
<path d="M0 0 C0.66 0.33 1.32 0.66 2 1 C2.625 3.5625 2.625 3.5625 3 6 C1.35 5.67 -0.3 5.34 -2 5 C-1.34 3.35 -0.68 1.7 0 0 Z " fill="#6A9846" transform="translate(386,122)"/>
<path d="M0 0 C2 1 4 2 6 3 C5.67 4.32 5.34 5.64 5 7 C2.47411298 4.63707344 1.11179163 3.33537489 0 0 Z " fill="#7FA04D" transform="translate(314,94)"/>
<path d="M0 0 C0.66 0.33 1.32 0.66 2 1 C0.73760288 1.86658615 -0.53527501 2.71792059 -1.8125 3.5625 C-2.87404297 4.27599609 -2.87404297 4.27599609 -3.95703125 5.00390625 C-6 6 -6 6 -9 5 C-6.32239719 2.32239719 -3.52050129 1.32018799 0 0 Z " fill="#5F8F18" transform="translate(345,86)"/>
<path d="M0 0 C0 0.99 0 1.98 0 3 C-2.875 3.625 -2.875 3.625 -6 4 C-6.66 3.34 -7.32 2.68 -8 2 C-4.77208445 -0.1519437 -3.71599191 -0.20086443 0 0 Z " fill="#97CA36" transform="translate(390,68)"/>
<path d="M0 0 C0.99 0.495 0.99 0.495 2 1 C2.75 3.375 2.75 3.375 3 6 C2.34 6.99 1.68 7.98 1 9 C0 8 0 8 -0.09765625 6.15234375 C-0.06510417 4.1015625 -0.03255208 2.05078125 0 0 Z " fill="#76A336" transform="translate(389,99)"/>
<path d="M0 0 C2.50037734 2.17424117 3.43628586 3.73045798 4 7 C2.68 6.67 1.36 6.34 0 6 C0 4.02 0 2.04 0 0 Z " fill="#B8D47D" transform="translate(364,80)"/>
<path d="M0 0 C3 3.625 3 3.625 3 7 C0 6 0 6 -1.1875 3.9375 C-1.5896875 2.9784375 -1.5896875 2.9784375 -2 2 C-1.34 2 -0.68 2 0 2 C0 1.34 0 0.68 0 0 Z " fill="#839A7B" transform="translate(365,174)"/>
<path d="M0 0 C0.99 0.33 1.98 0.66 3 1 C3 3.64 3 6.28 3 9 C0.87491756 5.81237635 0.4979837 3.73487777 0 0 Z " fill="#A9C298" transform="translate(398,128)"/>
</svg>
